<svg id="Layer_2" data-name="Layer 2" xmlns="http://www.w3.org/2000/svg" viewBox="0 0 231.59 190.5"><defs><style>.cls-1{fill:#39b28f;}</style></defs><title>colored</title><path class="cls-1" d="M111.65,84.25l37,114h-23v4h62v-3L172.4,199c-3,0-50.75-141.75-50.75-141.75Z" transform="translate(-14.35 -34.5)"/><polygon class="cls-1" points="64.3 147.75 58.3 167.75 88.3 167.75 64.3 147.75"/><path class="cls-1" d="M195.85,34.5c4.92,3.41,47.72,34.2,50,90,2.57,62.74-48.47,98.46-51.5,100.5l-2-3a108.83,108.83,0,0,0,29-31c17-27.49,16.72-55,16-66a108.81,108.81,0,0,0-45-87Z" transform="translate(-14.35 -34.5)"/><path class="cls-1" d="M64.45,34.5c-4.92,3.41-47.72,34.2-50,90C11.88,187.24,62.92,223,65.95,225l2-3a108.83,108.83,0,0,1-29-31c-17-27.49-16.72-55-16-66a108.81,108.81,0,0,1,45-87Z" transform="translate(-14.35 -34.5)"/></svg>